<?xml version="1.0" standalone="no"?>
<!DOCTYPE svg PUBLIC "-//W3C//DTD SVG 20010904//EN"
 "http://www.w3.org/TR/2001/REC-SVG-20010904/DTD/svg10.dtd">
<svg version="1.0" xmlns="http://www.w3.org/2000/svg"
 width="353.000000pt" height="261.000000pt" viewBox="0 0 353.000000 261.000000"
 preserveAspectRatio="xMidYMid meet">

<g transform="translate(0.000000,261.000000) scale(0.100000,-0.100000)"
fill="#000000" stroke="none">
<path d="M1660 2587 c-36 -18 -72 -66 -475 -646 -320 -458 -365 -528 -365
-560 0 -32 22 -69 143 -244 79 -113 164 -233 190 -266 45 -58 49 -61 91 -61
27 0 51 7 64 17 23 20 1111 1572 1136 1621 9 17 16 40 16 52 0 37 -28 77 -61
89 -48 16 -706 15 -739 -2z"/>
<path d="M2675 2568 c-29 -28 -1292 -1827 -1324 -1886 -25 -47 -14 -80 72
-205 177 -258 259 -373 283 -395 30 -26 89 -30 122 -7 12 9 115 150 229 313
114 163 483 692 821 1175 337 484 617 890 622 903 11 27 4 71 -13 95 -28 37
-48 39 -416 39 l-361 0 -35 -32z"/>
</g>
</svg>
